<?xml version="1.0" encoding="utf-8"?>
<!-- Generator: Adobe Illustrator 15.0.2, SVG Export Plug-In . SVG Version: 6.00 Build 0)  -->
<!DOCTYPE svg PUBLIC "-//W3C//DTD SVG 1.1//EN" "http://www.w3.org/Graphics/SVG/1.1/DTD/svg11.dtd">
<svg version="1.1" id="Layer_1" xmlns="http://www.w3.org/2000/svg" xmlns:xlink="http://www.w3.org/1999/xlink" x="0px" y="0px"
	 width="267.794px" height="369.727px" viewBox="0 0 267.794 369.727" enable-background="new 0 0 267.794 369.727"
	 xml:space="preserve">
<g>
	<polygon fill="none" stroke="#000000" stroke-width="4" stroke-miterlimit="10" points="243.317,230.008 143.567,313.709 
		143.567,139.162 243.317,55.461 	"/>
	
		<line fill="none" stroke="#000000" stroke-width="4" stroke-miterlimit="10" x1="224.274" y1="245.537" x2="224.274" y2="212.211"/>
	
		<line fill="none" stroke="#000000" stroke-width="4" stroke-miterlimit="10" x1="204.192" y1="262.201" x2="204.192" y2="228.875"/>
	
		<line fill="none" stroke="#000000" stroke-width="4" stroke-miterlimit="10" x1="184.692" y1="278.863" x2="184.692" y2="245.537"/>
	
		<line fill="none" stroke="#000000" stroke-width="4" stroke-miterlimit="10" x1="164.608" y1="295.525" x2="164.608" y2="262.201"/>
	<line fill="none" stroke="#000000" stroke-width="4" stroke-miterlimit="10" x1="224.275" y1="103.818" x2="224.275" y2="70.492"/>
	<line fill="none" stroke="#000000" stroke-width="4" stroke-miterlimit="10" x1="204.192" y1="120.48" x2="204.192" y2="87.154"/>
	
		<line fill="none" stroke="#000000" stroke-width="4" stroke-miterlimit="10" x1="184.692" y1="137.143" x2="184.692" y2="103.818"/>
	<line fill="none" stroke="#000000" stroke-width="4" stroke-miterlimit="10" x1="164.608" y1="153.807" x2="164.609" y2="120.48"/>
</g>
<polyline fill="none" stroke="#000000" stroke-width="4" stroke-miterlimit="10" points="267.712,245.139 267.794,369.727 
	119.233,369.727 "/>
<path fill="none" stroke="#000000" stroke-width="4" stroke-miterlimit="10" d="M107.898,0c20.758,0,34.642,16.68,35.06,34.002
	c0.609,25.146-19.614,38.684-57.169,38.172c0,0,3-39-31.254-39c-34.645,0-35.746,24-35.746,36c0,20,16,45.537,44.5,45.537
	l55.944,0.213v254.803l148.479-124.588L267.794,0H107.898z"/>
<circle fill="none" stroke="#000000" stroke-width="4" stroke-miterlimit="10" cx="52.814" cy="59.148" r="11.025"/>
<polygon fill="none" stroke="#000000" stroke-width="4" stroke-miterlimit="10" points="119.233,140.574 0,140.573 0.102,369.727 
	119.233,278.863 "/>
<polygon fill="none" stroke="#000000" stroke-width="4" stroke-miterlimit="10" points="100.708,161.048 21.034,161.048 
	21.136,326.22 100.708,265.631 "/>
<line fill="none" stroke="#000000" stroke-width="4" stroke-miterlimit="10" x1="44.708" y1="271.715" x2="44.708" y2="236.382"/>
<line fill="none" stroke="#000000" stroke-width="4" stroke-miterlimit="10" x1="70.708" y1="258.382" x2="70.708" y2="223.049"/>
</svg>
