<?xml version="1.0" encoding="utf-8"?>
<!-- Generator: Adobe Illustrator 15.0.2, SVG Export Plug-In . SVG Version: 6.00 Build 0)  -->
<!DOCTYPE svg PUBLIC "-//W3C//DTD SVG 1.1//EN" "http://www.w3.org/Graphics/SVG/1.1/DTD/svg11.dtd">
<svg version="1.1" id="Layer_1" xmlns="http://www.w3.org/2000/svg" xmlns:xlink="http://www.w3.org/1999/xlink" x="0px" y="0px"
	 width="314.228px" height="369.727px" viewBox="0 0 314.228 369.727" enable-background="new 0 0 314.228 369.727"
	 xml:space="preserve">
<polygon fill="none" stroke="#000000" stroke-width="4" stroke-miterlimit="10" points="0.082,88.557 0.082,0.906 104.541,0.906 "/>
<polygon fill="none" stroke="#000000" stroke-width="4" stroke-miterlimit="10" points="148.561,244.333 0,368.989 0.082,125.326 
	148.561,0.738 "/>
<g>
	<polygon fill="none" stroke="#000000" stroke-width="4" stroke-miterlimit="10" points="24.477,140.457 124.227,56.756 
		124.227,231.304 24.477,315.004 	"/>
	<line fill="none" stroke="#000000" stroke-width="4" stroke-miterlimit="10" x1="43.519" y1="124.928" x2="43.519" y2="158.254"/>
	<line fill="none" stroke="#000000" stroke-width="4" stroke-miterlimit="10" x1="63.602" y1="108.265" x2="63.602" y2="141.59"/>
	<line fill="none" stroke="#000000" stroke-width="4" stroke-miterlimit="10" x1="83.102" y1="91.602" x2="83.102" y2="124.928"/>
	<line fill="none" stroke="#000000" stroke-width="4" stroke-miterlimit="10" x1="103.185" y1="74.939" x2="103.185" y2="108.265"/>
	<line fill="none" stroke="#000000" stroke-width="4" stroke-miterlimit="10" x1="43.519" y1="266.647" x2="43.519" y2="299.973"/>
	<line fill="none" stroke="#000000" stroke-width="4" stroke-miterlimit="10" x1="63.602" y1="249.984" x2="63.602" y2="283.311"/>
	<line fill="none" stroke="#000000" stroke-width="4" stroke-miterlimit="10" x1="83.102" y1="233.322" x2="83.102" y2="266.647"/>
	
		<line fill="none" stroke="#000000" stroke-width="4" stroke-miterlimit="10" x1="103.185" y1="216.658" x2="103.185" y2="249.984"/>
</g>
<path fill="none" stroke="#000000" stroke-width="4" stroke-miterlimit="10" d="M0,368.989h115.831
	c0-18.076,14.653-32.729,32.729-32.729s32.729,14.653,32.729,32.729h70.843c34.294,0,62.095-27.801,62.095-62.095
	S286.427,244.8,252.133,244.8v-17.401h46.905v-85.808h-46.905v-16.664c34.294,0,62.095-27.801,62.095-62.094
	c0-34.294-27.801-62.095-62.095-62.095H148.561"/>
<g>
	
		<rect x="202.804" y="37.758" transform="matrix(0.7071 0.7071 -0.7071 0.7071 112.4302 -143.2511)" fill="none" stroke="#000000" stroke-width="4" stroke-miterlimit="10" width="52.668" height="52.668"/>
	<circle fill="none" stroke="#000000" stroke-width="4" stroke-miterlimit="10" cx="229.02" cy="63.739" r="15.9"/>
</g>
<g>
	
		<rect x="202.921" y="283.816" transform="matrix(0.7071 0.7071 -0.7071 0.7071 286.4559 -71.267)" fill="none" stroke="#000000" stroke-width="4" stroke-miterlimit="10" width="52.668" height="52.667"/>
	<circle fill="none" stroke="#000000" stroke-width="4" stroke-miterlimit="10" cx="229.137" cy="309.796" r="15.9"/>
</g>
</svg>
