<?xml version="1.0" encoding="utf-8"?>
<!-- Generator: Adobe Illustrator 15.0.2, SVG Export Plug-In . SVG Version: 6.00 Build 0)  -->
<!DOCTYPE svg PUBLIC "-//W3C//DTD SVG 1.1//EN" "http://www.w3.org/Graphics/SVG/1.1/DTD/svg11.dtd">
<svg version="1.1" id="Layer_1" xmlns="http://www.w3.org/2000/svg" xmlns:xlink="http://www.w3.org/1999/xlink" x="0px" y="0px"
	 width="249.555px" height="369.727px" viewBox="0 0 249.555 369.727" enable-background="new 0 0 249.555 369.727"
	 xml:space="preserve">
<g>
	<polygon fill="none" stroke="#000000" stroke-width="4" stroke-miterlimit="10" points="122.287,130.769 22.537,47.067 
		22.537,322.416 122.287,238.716 	"/>
	
		<line fill="none" stroke="#000000" stroke-width="4" stroke-miterlimit="10" x1="103.245" y1="115.239" x2="103.245" y2="148.565"/>
	<line fill="none" stroke="#000000" stroke-width="4" stroke-miterlimit="10" x1="83.162" y1="98.576" x2="83.162" y2="131.901"/>
	<line fill="none" stroke="#000000" stroke-width="4" stroke-miterlimit="10" x1="63.662" y1="81.913" x2="63.662" y2="115.239"/>
	<line fill="none" stroke="#000000" stroke-width="4" stroke-miterlimit="10" x1="43.579" y1="65.251" x2="43.579" y2="98.576"/>
	
		<line fill="none" stroke="#000000" stroke-width="4" stroke-miterlimit="10" x1="103.245" y1="255.072" x2="103.245" y2="221.747"/>
	<line fill="none" stroke="#000000" stroke-width="4" stroke-miterlimit="10" x1="83.162" y1="271.735" x2="83.162" y2="238.409"/>
	<line fill="none" stroke="#000000" stroke-width="4" stroke-miterlimit="10" x1="63.662" y1="288.397" x2="63.662" y2="255.072"/>
	<line fill="none" stroke="#000000" stroke-width="4" stroke-miterlimit="10" x1="43.579" y1="305.062" x2="43.579" y2="271.735"/>
</g>
<polygon fill="none" stroke="#000000" stroke-width="4" stroke-miterlimit="10" points="145,255.325 0,368.727 0,3.727 145,118.413 
	"/>
<path fill="none" stroke="#000000" stroke-width="4" stroke-miterlimit="10" d="M0,3.727h160.446
	c-20.758,0-34.642,16.681-35.061,34.002C124.777,62.876,145,76.413,182.555,75.901c0,0-3-39,31.254-39c34.645,0,35.746,24,35.746,36
	c0,20-16,45.537-44.5,45.537l-59.518,0.212"/>
<circle fill="none" stroke="#000000" stroke-width="4" stroke-miterlimit="10" cx="215.529" cy="62.876" r="11.025"/>
<path fill="none" stroke="#000000" stroke-width="4" stroke-miterlimit="10" d="M0.537,367.958h160.446
	c-20.758,0-34.642-16.681-35.061-34.003c-0.608-25.146,19.614-38.684,57.169-38.172c0,0-3,39,31.254,39
	c34.645,0,35.746-24,35.746-36c0-20-16-45.537-44.5-45.537l-59.518-0.212"/>
<circle fill="none" stroke="#000000" stroke-width="4" stroke-miterlimit="10" cx="216.066" cy="308.809" r="11.025"/>
</svg>
