<?xml version="1.0" encoding="utf-8"?>
<!-- Generator: Adobe Illustrator 15.0.2, SVG Export Plug-In . SVG Version: 6.00 Build 0)  -->
<!DOCTYPE svg PUBLIC "-//W3C//DTD SVG 1.1//EN" "http://www.w3.org/Graphics/SVG/1.1/DTD/svg11.dtd">
<svg version="1.1" id="Layer_1" xmlns="http://www.w3.org/2000/svg" xmlns:xlink="http://www.w3.org/1999/xlink" x="0px" y="0px"
	 width="249.555px" height="369.727px" viewBox="0 0 249.555 369.727" enable-background="new 0 0 249.555 369.727"
	 xml:space="preserve">
<g>
	<polygon fill="none" stroke="#000000" stroke-width="4" stroke-miterlimit="10" points="126.805,131.769 226.555,48.068 
		226.555,323.416 126.805,239.716 	"/>
	<line fill="none" stroke="#000000" stroke-width="4" stroke-miterlimit="10" x1="145.847" y1="116.24" x2="145.847" y2="149.566"/>
	<line fill="none" stroke="#000000" stroke-width="4" stroke-miterlimit="10" x1="165.93" y1="99.577" x2="165.93" y2="132.902"/>
	<line fill="none" stroke="#000000" stroke-width="4" stroke-miterlimit="10" x1="185.43" y1="82.914" x2="185.43" y2="116.24"/>
	<line fill="none" stroke="#000000" stroke-width="4" stroke-miterlimit="10" x1="205.513" y1="66.251" x2="205.513" y2="99.577"/>
	
		<line fill="none" stroke="#000000" stroke-width="4" stroke-miterlimit="10" x1="145.847" y1="256.073" x2="145.847" y2="222.748"/>
	<line fill="none" stroke="#000000" stroke-width="4" stroke-miterlimit="10" x1="165.93" y1="272.736" x2="165.93" y2="239.41"/>
	<line fill="none" stroke="#000000" stroke-width="4" stroke-miterlimit="10" x1="185.43" y1="289.398" x2="185.43" y2="256.073"/>
	
		<line fill="none" stroke="#000000" stroke-width="4" stroke-miterlimit="10" x1="205.513" y1="306.062" x2="205.513" y2="272.736"/>
</g>
<polygon fill="none" stroke="#000000" stroke-width="4" stroke-miterlimit="10" points="104.092,256.326 249.092,369.727 
	249.092,4.727 104.092,119.413 "/>
<path fill="none" stroke="#000000" stroke-width="4" stroke-miterlimit="10" d="M249.092,4.727H88.646
	c20.758,0,34.642,16.681,35.061,34.002c0.608,25.147-19.614,38.684-57.169,38.172c0,0,3-39-31.254-39c-34.645,0-35.746,24-35.746,36
	c0,20,16,45.537,44.5,45.537l59.518,0.212"/>
<circle fill="none" stroke="#000000" stroke-width="4" stroke-miterlimit="10" cx="33.562" cy="63.876" r="11.025"/>
<polyline fill="none" stroke="#000000" stroke-width="4" stroke-miterlimit="10" points="120.795,268.623 -0.241,367.475 
	249.092,367.475 "/>
<polyline fill="none" stroke="#000000" stroke-width="4" stroke-miterlimit="10" points="-0.241,367.475 -0.241,119.651 
	44.037,119.651 "/>
<polyline fill="none" stroke="#000000" stroke-width="4" stroke-miterlimit="10" points="19.898,119.651 19.898,326.416 
	104.092,256.326 "/>
<line fill="none" stroke="#000000" stroke-width="4" stroke-miterlimit="10" x1="48.184" y1="302.869" x2="48.184" y2="268.623"/>
<line fill="none" stroke="#000000" stroke-width="4" stroke-miterlimit="10" x1="73.248" y1="282.37" x2="73.248" y2="248.123"/>
</svg>
