<?xml version="1.0" encoding="utf-8"?>
<!-- Generator: Adobe Illustrator 15.0.2, SVG Export Plug-In . SVG Version: 6.00 Build 0)  -->
<!DOCTYPE svg PUBLIC "-//W3C//DTD SVG 1.1//EN" "http://www.w3.org/Graphics/SVG/1.1/DTD/svg11.dtd">
<svg version="1.1" id="Layer_1" xmlns="http://www.w3.org/2000/svg" xmlns:xlink="http://www.w3.org/1999/xlink" x="0px" y="0px"
	 width="288.566px" height="369.727px" viewBox="0 0 288.566 369.727" enable-background="new 0 0 288.566 369.727"
	 xml:space="preserve">
<g>
	<polygon fill="none" stroke="#000000" stroke-width="4" stroke-miterlimit="10" points="122.287,129.042 22.537,45.341 
		22.537,320.689 122.287,236.99 	"/>
	
		<line fill="none" stroke="#000000" stroke-width="4" stroke-miterlimit="10" x1="103.245" y1="113.513" x2="103.245" y2="146.839"/>
	<line fill="none" stroke="#000000" stroke-width="4" stroke-miterlimit="10" x1="83.162" y1="96.85" x2="83.162" y2="130.175"/>
	<line fill="none" stroke="#000000" stroke-width="4" stroke-miterlimit="10" x1="63.662" y1="80.187" x2="63.662" y2="113.513"/>
	<line fill="none" stroke="#000000" stroke-width="4" stroke-miterlimit="10" x1="43.579" y1="63.524" x2="43.579" y2="96.85"/>
	
		<line fill="none" stroke="#000000" stroke-width="4" stroke-miterlimit="10" x1="103.245" y1="253.345" x2="103.245" y2="220.021"/>
	<line fill="none" stroke="#000000" stroke-width="4" stroke-miterlimit="10" x1="83.162" y1="270.009" x2="83.162" y2="236.683"/>
	<line fill="none" stroke="#000000" stroke-width="4" stroke-miterlimit="10" x1="63.662" y1="286.671" x2="63.662" y2="253.345"/>
	<line fill="none" stroke="#000000" stroke-width="4" stroke-miterlimit="10" x1="43.579" y1="303.336" x2="43.579" y2="270.009"/>
</g>
<polygon fill="none" stroke="#000000" stroke-width="4" stroke-miterlimit="10" points="145,253.599 0,367 0,2 145,116.686 "/>
<path fill="none" stroke="#000000" stroke-width="4" stroke-miterlimit="10" d="M0,367l186.983-0.768
	c-20.758,0-34.642-16.682-35.061-34.004c-0.608-25.146,19.614-38.684,57.169-38.172c0,0-3,39,31.254,39
	c34.645,0,35.746-24,35.746-36c0-20-16-44.537-44.5-44.537L145,253.599"/>
<circle fill="none" stroke="#000000" stroke-width="4" stroke-miterlimit="10" cx="242.066" cy="307.082" r="11.025"/>
<polyline fill="none" stroke="#000000" stroke-width="4" stroke-miterlimit="10" points="0,2 288.566,2 288.566,3.485 
	143.566,118.171 "/>
<polyline fill="none" stroke="#000000" stroke-width="4" stroke-miterlimit="10" points="145,253.599 288.566,143.503 
	288.566,6.669 "/>
<polygon fill="none" stroke="#000000" stroke-width="4" stroke-miterlimit="10" points="267.658,52.877 167.908,131.176 
	167.908,211.524 267.658,127.825 "/>
<line fill="none" stroke="#000000" stroke-width="4" stroke-miterlimit="10" x1="239.7" y1="151.496" x2="239.7" y2="118.171"/>
<line fill="none" stroke="#000000" stroke-width="4" stroke-miterlimit="10" x1="216.783" y1="126.519" x2="216.783" y2="93.192"/>
<line fill="none" stroke="#000000" stroke-width="4" stroke-miterlimit="10" x1="197.2" y1="186.968" x2="197.2" y2="153.642"/>
<path fill="none" stroke="#000000" stroke-width="4" stroke-miterlimit="10" d="M288.566,143.503
	c0,78.289,10.301,110.096-38.788,112.801"/>
</svg>
