<?xml version="1.0" encoding="utf-8"?>
<!-- Generator: Adobe Illustrator 15.0.2, SVG Export Plug-In . SVG Version: 6.00 Build 0)  -->
<!DOCTYPE svg PUBLIC "-//W3C//DTD SVG 1.1//EN" "http://www.w3.org/Graphics/SVG/1.1/DTD/svg11.dtd">
<svg version="1.1" id="Layer_1" xmlns="http://www.w3.org/2000/svg" xmlns:xlink="http://www.w3.org/1999/xlink" x="0px" y="0px"
	 width="267.895px" height="369.727px" viewBox="0 0 267.895 369.727" enable-background="new 0 0 267.895 369.727"
	 xml:space="preserve">
<path fill="none" stroke="#000000" stroke-width="4" stroke-miterlimit="10" d="M267.343,149.107
	c0,78.289,10.301,110.096-38.788,112.801"/>
<polygon fill="none" stroke="#000000" stroke-width="4" stroke-miterlimit="10" points="149.111,243.594 0.551,368.25 
	0.633,124.587 149.111,0 "/>
<g>
	<polygon fill="none" stroke="#000000" stroke-width="4" stroke-miterlimit="10" points="25.027,139.718 124.777,56.017 
		124.777,230.564 25.027,314.266 	"/>
	<line fill="none" stroke="#000000" stroke-width="4" stroke-miterlimit="10" x1="44.069" y1="124.189" x2="44.069" y2="157.515"/>
	<line fill="none" stroke="#000000" stroke-width="4" stroke-miterlimit="10" x1="64.152" y1="107.526" x2="64.152" y2="140.851"/>
	<line fill="none" stroke="#000000" stroke-width="4" stroke-miterlimit="10" x1="83.652" y1="90.863" x2="83.652" y2="124.189"/>
	<line fill="none" stroke="#000000" stroke-width="4" stroke-miterlimit="10" x1="103.735" y1="74.201" x2="103.735" y2="107.526"/>
	<line fill="none" stroke="#000000" stroke-width="4" stroke-miterlimit="10" x1="44.069" y1="265.908" x2="44.069" y2="299.234"/>
	<line fill="none" stroke="#000000" stroke-width="4" stroke-miterlimit="10" x1="64.152" y1="249.246" x2="64.152" y2="282.572"/>
	<line fill="none" stroke="#000000" stroke-width="4" stroke-miterlimit="10" x1="83.652" y1="232.584" x2="83.652" y2="265.908"/>
	<line fill="none" stroke="#000000" stroke-width="4" stroke-miterlimit="10" x1="103.735" y1="215.92" x2="103.735" y2="249.246"/>
</g>
<polyline fill="none" stroke="#000000" stroke-width="4" stroke-miterlimit="10" points="0.633,124.587 0.551,0 149.111,0 "/>
<polyline fill="none" stroke="#000000" stroke-width="4" stroke-miterlimit="10" points="149.111,243.594 268.344,150.46 
	268.243,90.863 169.055,167.229 169.055,226.239 "/>
<path fill="none" stroke="#000000" stroke-width="4" stroke-miterlimit="10" d="M0,369.728h160.446
	c-20.758,0-34.642-16.681-35.061-34.003c-0.608-25.146,19.614-38.684,57.169-38.172c0,0-3,39,31.254,39
	c34.645,0,35.746-24,35.746-36c0-20-16-45.537-44.5-45.537l-69.303-0.212"/>
<circle fill="none" stroke="#000000" stroke-width="4" stroke-miterlimit="10" cx="215.529" cy="310.578" r="11.025"/>
<polygon fill="none" stroke="#000000" stroke-width="4" stroke-miterlimit="10" points="169.055,135.376 268.344,59.597 268.243,0 
	169.055,76.365 "/>
<polyline fill="none" stroke="#000000" stroke-width="4" stroke-miterlimit="10" points="169.055,76.365 169.055,0 268.243,0 "/>
<line fill="none" stroke="#000000" stroke-width="4" stroke-miterlimit="10" x1="192.112" y1="59.916" x2="192.112" y2="88.485"/>
<line fill="none" stroke="#000000" stroke-width="4" stroke-miterlimit="10" x1="218.649" y1="38.182" x2="218.649" y2="66.752"/>
<line fill="none" stroke="#000000" stroke-width="4" stroke-miterlimit="10" x1="243.612" y1="19.293" x2="243.612" y2="47.863"/>
<line fill="none" stroke="#000000" stroke-width="4" stroke-miterlimit="10" x1="192.949" y1="149.107" x2="192.949" y2="177.677"/>
<line fill="none" stroke="#000000" stroke-width="4" stroke-miterlimit="10" x1="219.486" y1="127.374" x2="219.486" y2="155.944"/>
<line fill="none" stroke="#000000" stroke-width="4" stroke-miterlimit="10" x1="244.449" y1="108.485" x2="244.449" y2="137.055"/>
</svg>
