<?xml version="1.0" encoding="utf-8"?>
<!-- Generator: Adobe Illustrator 15.0.2, SVG Export Plug-In . SVG Version: 6.00 Build 0)  -->
<!DOCTYPE svg PUBLIC "-//W3C//DTD SVG 1.1//EN" "http://www.w3.org/Graphics/SVG/1.1/DTD/svg11.dtd">
<svg version="1.1" id="Layer_1" xmlns="http://www.w3.org/2000/svg" xmlns:xlink="http://www.w3.org/1999/xlink" x="0px" y="0px"
	 width="339.357px" height="387.105px" viewBox="0 0 339.357 387.105" enable-background="new 0 0 339.357 387.105"
	 xml:space="preserve">
<polyline fill="none" stroke="#000000" stroke-width="4" stroke-miterlimit="10" points="158.607,233.372 339.401,385.629 
	339.319,52.967 158.607,166.332 "/>
<polygon fill="none" stroke="#000000" stroke-width="4" stroke-miterlimit="10" points="314.925,134.098 181.332,218.512 
	314.925,331.645 "/>
<line fill="none" stroke="#000000" stroke-width="4" stroke-miterlimit="10" x1="288.289" y1="151.765" x2="288.289" y2="180.898"/>
<line fill="none" stroke="#000000" stroke-width="4" stroke-miterlimit="10" x1="259.289" y1="168.994" x2="259.289" y2="198.129"/>
<line fill="none" stroke="#000000" stroke-width="4" stroke-miterlimit="10" x1="227.289" y1="188.684" x2="227.289" y2="217.819"/>
<line fill="none" stroke="#000000" stroke-width="4" stroke-miterlimit="10" x1="288.289" y1="281.66" x2="288.289" y2="309.971"/>
<line fill="none" stroke="#000000" stroke-width="4" stroke-miterlimit="10" x1="259.289" y1="256.326" x2="259.289" y2="284.636"/>
<line fill="none" stroke="#000000" stroke-width="4" stroke-miterlimit="10" x1="227.289" y1="229.335" x2="227.289" y2="257.645"/>
<path fill="none" stroke="#000000" stroke-width="4" stroke-miterlimit="10" d="M339.952,387.105H179.506
	c20.758,0,34.642-16.68,35.061-34.002c0.608-25.146-19.614-38.683-57.169-38.171c0,0,3,39-31.254,39c-34.645,0-35.746-24-35.746-36
	c0-20,16-45.537,44.5-45.537l69.303-0.213"/>
<circle fill="none" stroke="#000000" stroke-width="4" stroke-miterlimit="10" cx="124.423" cy="327.957" r="11.025"/>
<polyline fill="none" stroke="#000000" stroke-width="4" stroke-miterlimit="10" points="180.794,152.258 0,0 0.082,332.662 
	180.794,219.298 "/>
<polygon fill="none" stroke="#000000" stroke-width="4" stroke-miterlimit="10" points="24.477,279.66 158.069,200.731 
	158.069,167.118 24.477,53.984 "/>
<line fill="none" stroke="#000000" stroke-width="4" stroke-miterlimit="10" x1="51.112" y1="265.305" x2="51.112" y2="236.171"/>
<line fill="none" stroke="#000000" stroke-width="4" stroke-miterlimit="10" x1="80.112" y1="248.077" x2="80.112" y2="218.941"/>
<line fill="none" stroke="#000000" stroke-width="4" stroke-miterlimit="10" x1="112.112" y1="228.386" x2="112.112" y2="199.251"/>
<line fill="none" stroke="#000000" stroke-width="4" stroke-miterlimit="10" x1="80.112" y1="129.304" x2="80.112" y2="100.994"/>
<line fill="none" stroke="#000000" stroke-width="4" stroke-miterlimit="10" x1="112.112" y1="156.294" x2="112.112" y2="127.985"/>
<line fill="none" stroke="#000000" stroke-width="4" stroke-miterlimit="10" x1="51.112" y1="77.764" x2="51.112" y2="106.898"/>
</svg>
