<?xml version="1.0" encoding="utf-8"?>
<!-- Generator: Adobe Illustrator 15.0.2, SVG Export Plug-In . SVG Version: 6.00 Build 0)  -->
<!DOCTYPE svg PUBLIC "-//W3C//DTD SVG 1.1//EN" "http://www.w3.org/Graphics/SVG/1.1/DTD/svg11.dtd">
<svg version="1.1" id="Layer_1" xmlns="http://www.w3.org/2000/svg" xmlns:xlink="http://www.w3.org/1999/xlink" x="0px" y="0px"
	 width="271.496px" height="369.727px" viewBox="0 0 271.496 369.727" enable-background="new 0 0 271.496 369.727"
	 xml:space="preserve">
<g>
	<polygon fill="none" stroke="#000000" stroke-width="4" stroke-miterlimit="10" points="24.876,230.56 124.626,314.262 
		124.626,139.714 24.876,56.013 	"/>
	<line fill="none" stroke="#000000" stroke-width="4" stroke-miterlimit="10" x1="43.918" y1="246.089" x2="43.918" y2="212.763"/>
	<line fill="none" stroke="#000000" stroke-width="4" stroke-miterlimit="10" x1="64.001" y1="262.753" x2="64.001" y2="229.427"/>
	<line fill="none" stroke="#000000" stroke-width="4" stroke-miterlimit="10" x1="83.501" y1="279.416" x2="83.501" y2="246.089"/>
	
		<line fill="none" stroke="#000000" stroke-width="4" stroke-miterlimit="10" x1="103.584" y1="296.078" x2="103.584" y2="262.753"/>
	<line fill="none" stroke="#000000" stroke-width="4" stroke-miterlimit="10" x1="43.918" y1="104.371" x2="43.918" y2="71.044"/>
	<line fill="none" stroke="#000000" stroke-width="4" stroke-miterlimit="10" x1="64.001" y1="121.033" x2="64.001" y2="87.707"/>
	<line fill="none" stroke="#000000" stroke-width="4" stroke-miterlimit="10" x1="83.501" y1="137.695" x2="83.501" y2="104.371"/>
	
		<line fill="none" stroke="#000000" stroke-width="4" stroke-miterlimit="10" x1="103.584" y1="154.359" x2="103.584" y2="121.033"/>
</g>
<path fill="none" stroke="#000000" stroke-width="4" stroke-miterlimit="10" d="M-0.151,0.551h160.446
	c-20.757,0-34.641,16.681-35.06,34.003c-0.608,25.146,19.614,38.684,57.169,38.172c0,0-3-39,31.254-39c34.645,0,35.746,24,35.746,36
	c0,20-16,45.537-44.5,45.537l-69.303,0.212"/>
<circle fill="none" stroke="#000000" stroke-width="4" stroke-miterlimit="10" cx="215.378" cy="59.701" r="11.025"/>
<path fill="none" stroke="#000000" stroke-width="4" stroke-miterlimit="10" d="M91.752,322.275c0,0,3.521,5.455-34.034,4.943
	c0,0,3-39-31.254-39c-34.645,0-35.746,24-35.746,36c0,20,16,45.537,44.5,45.537l113.742,0.213"/>
<circle fill="none" stroke="#000000" stroke-width="4" stroke-miterlimit="10" cx="24.744" cy="314.193" r="11.025"/>
<polygon fill="none" stroke="#000000" stroke-width="4" stroke-miterlimit="10" points="146.448,326.387 246.198,326.088 
	246.198,235.542 146.448,151.84 "/>
<line fill="none" stroke="#000000" stroke-width="4" stroke-miterlimit="10" x1="176.489" y1="325.916" x2="176.489" y2="292.59"/>
<line fill="none" stroke="#000000" stroke-width="4" stroke-miterlimit="10" x1="196.573" y1="326.58" x2="196.573" y2="293.254"/>
<line fill="none" stroke="#000000" stroke-width="4" stroke-miterlimit="10" x1="216.073" y1="326.242" x2="216.073" y2="292.917"/>
<line fill="none" stroke="#000000" stroke-width="4" stroke-miterlimit="10" x1="175.859" y1="210.569" x2="175.859" y2="177.243"/>
<line fill="none" stroke="#000000" stroke-width="4" stroke-miterlimit="10" x1="195.943" y1="227.231" x2="195.943" y2="193.905"/>
<line fill="none" stroke="#000000" stroke-width="4" stroke-miterlimit="10" x1="215.443" y1="243.893" x2="215.443" y2="210.569"/>
<path fill="none" stroke="#000000" stroke-width="4" stroke-miterlimit="10" d="M271.496,227.231L0.399,2.029l0.082,243.662
	L148.96,370.279h46.991c-0.001-0.105-0.008-0.207-0.008-0.312c0-13.877,11.25-25.127,25.127-25.127
	c13.878,0,25.128,11.25,25.128,25.127c0,0.105-0.007,0.207-0.008,0.312h25.306V227.231z"/>
</svg>
