<?xml version="1.0" encoding="utf-8"?>
<!-- Generator: Adobe Illustrator 15.0.2, SVG Export Plug-In . SVG Version: 6.00 Build 0)  -->
<!DOCTYPE svg PUBLIC "-//W3C//DTD SVG 1.1//EN" "http://www.w3.org/Graphics/SVG/1.1/DTD/svg11.dtd">
<svg version="1.1" id="Layer_1" xmlns="http://www.w3.org/2000/svg" xmlns:xlink="http://www.w3.org/1999/xlink" x="0px" y="0px"
	 width="148.561px" height="369.727px" viewBox="0 0 148.561 369.727" enable-background="new 0 0 148.561 369.727"
	 xml:space="preserve">
<g>
	<polygon fill="none" stroke="#000000" stroke-width="4" stroke-miterlimit="10" points="0.082,88.556 0.082,0.906 104.541,0.906 	
		"/>
	<polygon fill="none" stroke="#000000" stroke-width="4" stroke-miterlimit="10" points="148.561,244.333 0,368.988 0.082,125.326 
		148.561,0.738 	"/>
	<g>
		<polygon fill="none" stroke="#000000" stroke-width="4" stroke-miterlimit="10" points="24.477,140.457 124.227,56.755 
			124.227,231.303 24.477,315.004 		"/>
		<line fill="none" stroke="#000000" stroke-width="4" stroke-miterlimit="10" x1="43.519" y1="124.927" x2="43.519" y2="158.253"/>
		<line fill="none" stroke="#000000" stroke-width="4" stroke-miterlimit="10" x1="63.602" y1="108.264" x2="63.602" y2="141.589"/>
		<line fill="none" stroke="#000000" stroke-width="4" stroke-miterlimit="10" x1="83.102" y1="91.601" x2="83.102" y2="124.927"/>
		
			<line fill="none" stroke="#000000" stroke-width="4" stroke-miterlimit="10" x1="103.185" y1="74.939" x2="103.185" y2="108.264"/>
		<line fill="none" stroke="#000000" stroke-width="4" stroke-miterlimit="10" x1="43.519" y1="266.647" x2="43.519" y2="299.973"/>
		<line fill="none" stroke="#000000" stroke-width="4" stroke-miterlimit="10" x1="63.602" y1="249.984" x2="63.602" y2="283.31"/>
		<line fill="none" stroke="#000000" stroke-width="4" stroke-miterlimit="10" x1="83.102" y1="233.322" x2="83.102" y2="266.647"/>
		
			<line fill="none" stroke="#000000" stroke-width="4" stroke-miterlimit="10" x1="103.185" y1="216.658" x2="103.185" y2="249.984"/>
	</g>
	<path fill="none" stroke="#000000" stroke-width="4" stroke-miterlimit="10" d="M148.561,368.965v-0.664
		c0,0.223-0.012,0.443-0.017,0.664H148.561z"/>
	<path fill="none" stroke="#000000" stroke-width="4" stroke-miterlimit="10" d="M44.102,368.965h45.966
		c-0.005-0.221-0.017-0.441-0.017-0.664c0-16.156,13.098-29.254,29.255-29.254s29.255,13.098,29.255,29.254v-86.986L44.102,368.965z
		"/>
</g>
</svg>
