<?xml version="1.0" encoding="utf-8"?>
<!-- Generator: Adobe Illustrator 15.0.2, SVG Export Plug-In . SVG Version: 6.00 Build 0)  -->
<!DOCTYPE svg PUBLIC "-//W3C//DTD SVG 1.1//EN" "http://www.w3.org/Graphics/SVG/1.1/DTD/svg11.dtd">
<svg version="1.1" id="Layer_1" xmlns="http://www.w3.org/2000/svg" xmlns:xlink="http://www.w3.org/1999/xlink" x="0px" y="0px"
	 width="273.339px" height="369.727px" viewBox="0 0 273.339 369.727" enable-background="new 0 0 273.339 369.727"
	 xml:space="preserve">
<g>
	<polygon fill="none" stroke="#000000" stroke-width="4" stroke-miterlimit="10" points="0.35,88.556 0.35,0.905 104.809,0.905 	"/>
	<g>
		<polygon fill="none" stroke="#000000" stroke-width="4" stroke-miterlimit="10" points="24.745,140.456 124.495,56.755 
			124.495,231.303 24.745,315.003 		"/>
		<line fill="none" stroke="#000000" stroke-width="4" stroke-miterlimit="10" x1="43.787" y1="124.927" x2="43.787" y2="158.253"/>
		<line fill="none" stroke="#000000" stroke-width="4" stroke-miterlimit="10" x1="63.87" y1="108.264" x2="63.87" y2="141.589"/>
		<line fill="none" stroke="#000000" stroke-width="4" stroke-miterlimit="10" x1="83.37" y1="91.601" x2="83.37" y2="124.927"/>
		
			<line fill="none" stroke="#000000" stroke-width="4" stroke-miterlimit="10" x1="103.453" y1="74.938" x2="103.453" y2="108.264"/>
		<line fill="none" stroke="#000000" stroke-width="4" stroke-miterlimit="10" x1="43.787" y1="266.646" x2="43.787" y2="299.972"/>
		<line fill="none" stroke="#000000" stroke-width="4" stroke-miterlimit="10" x1="63.87" y1="249.983" x2="63.87" y2="283.31"/>
		<line fill="none" stroke="#000000" stroke-width="4" stroke-miterlimit="10" x1="83.37" y1="233.321" x2="83.37" y2="266.646"/>
		
			<line fill="none" stroke="#000000" stroke-width="4" stroke-miterlimit="10" x1="103.453" y1="216.657" x2="103.453" y2="249.983"/>
	</g>
	<path fill="none" stroke="#000000" stroke-width="4" stroke-miterlimit="10" d="M211.053,368.988v-1.112
		c0,0.373-0.016,0.742-0.028,1.112H211.053z"/>
	<path fill="none" stroke="#000000" stroke-width="4" stroke-miterlimit="10" d="M0.268,368.988h148.589
		c-0.013-0.37-0.028-0.739-0.028-1.112c0-17.183,13.93-31.112,31.112-31.112s31.112,13.93,31.112,31.112V249.122
		c0.011,0,0.021,0.001,0.031,0.001c34.383,0,62.255-27.873,62.255-62.255c0-34.383-27.872-62.256-62.255-62.256
		c-0.011,0-0.021,0.001-0.031,0.001V54.425c0.226,0.005,0.449,0.017,0.676,0.017c14.733,0,26.677-11.943,26.677-26.677
		c0-14.732-12.633-26.864-26.677-26.676c-25.859,0.347-48.859,17.309-61.978,51.521c-0.402,1.049-0.565,2.283-0.923,3.549"/>
	<polygon fill="none" stroke="#000000" stroke-width="4" stroke-miterlimit="10" points="148.829,56.158 148.829,0.737 
		0.35,125.325 0.268,368.988 148.829,244.332 	"/>
	<circle fill="none" stroke="#000000" stroke-width="4" stroke-miterlimit="10" cx="212.025" cy="27.397" r="9"/>
</g>
</svg>
