<?xml version="1.0" encoding="utf-8"?>
<!-- Generator: Adobe Illustrator 15.0.2, SVG Export Plug-In . SVG Version: 6.00 Build 0)  -->
<!DOCTYPE svg PUBLIC "-//W3C//DTD SVG 1.1//EN" "http://www.w3.org/Graphics/SVG/1.1/DTD/svg11.dtd">
<svg version="1.1" id="Layer_1" xmlns="http://www.w3.org/2000/svg" xmlns:xlink="http://www.w3.org/1999/xlink" x="0px" y="0px"
	 width="445.552px" height="369.727px" viewBox="0 0 445.552 369.727" enable-background="new 0 0 445.552 369.727"
	 xml:space="preserve">
<g>
	<polygon fill="none" stroke="#000000" stroke-width="4" stroke-miterlimit="10" points="0.083,88.456 0.083,0.805 104.541,0.805 	
		"/>
	<g>
		<polygon fill="none" stroke="#000000" stroke-width="4" stroke-miterlimit="10" points="24.477,140.356 124.227,56.655 
			124.227,231.202 24.477,314.903 		"/>
		<line fill="none" stroke="#000000" stroke-width="4" stroke-miterlimit="10" x1="43.519" y1="124.827" x2="43.519" y2="158.152"/>
		<line fill="none" stroke="#000000" stroke-width="4" stroke-miterlimit="10" x1="63.602" y1="108.163" x2="63.602" y2="141.489"/>
		<line fill="none" stroke="#000000" stroke-width="4" stroke-miterlimit="10" x1="83.102" y1="91.501" x2="83.102" y2="124.827"/>
		
			<line fill="none" stroke="#000000" stroke-width="4" stroke-miterlimit="10" x1="103.185" y1="74.838" x2="103.185" y2="108.163"/>
		<line fill="none" stroke="#000000" stroke-width="4" stroke-miterlimit="10" x1="43.519" y1="266.546" x2="43.519" y2="299.872"/>
		<line fill="none" stroke="#000000" stroke-width="4" stroke-miterlimit="10" x1="63.602" y1="249.884" x2="63.602" y2="283.21"/>
		<line fill="none" stroke="#000000" stroke-width="4" stroke-miterlimit="10" x1="83.102" y1="233.222" x2="83.102" y2="266.546"/>
		
			<line fill="none" stroke="#000000" stroke-width="4" stroke-miterlimit="10" x1="103.185" y1="216.558" x2="103.185" y2="249.884"/>
	</g>
	<g>
		<polygon fill="none" stroke="#000000" stroke-width="4" stroke-miterlimit="10" points="172.979,140.042 272.73,56.341 
			272.73,230.89 172.979,314.589 		"/>
		
			<line fill="none" stroke="#000000" stroke-width="4" stroke-miterlimit="10" x1="192.022" y1="124.513" x2="192.022" y2="157.839"/>
		
			<line fill="none" stroke="#000000" stroke-width="4" stroke-miterlimit="10" x1="212.104" y1="107.85" x2="212.104" y2="141.175"/>
		
			<line fill="none" stroke="#000000" stroke-width="4" stroke-miterlimit="10" x1="231.604" y1="91.187" x2="231.604" y2="124.513"/>
		<line fill="none" stroke="#000000" stroke-width="4" stroke-miterlimit="10" x1="251.688" y1="74.524" x2="251.688" y2="107.85"/>
		
			<line fill="none" stroke="#000000" stroke-width="4" stroke-miterlimit="10" x1="192.022" y1="266.233" x2="192.022" y2="299.558"/>
		
			<line fill="none" stroke="#000000" stroke-width="4" stroke-miterlimit="10" x1="212.104" y1="249.569" x2="212.104" y2="282.896"/>
		
			<line fill="none" stroke="#000000" stroke-width="4" stroke-miterlimit="10" x1="231.604" y1="232.907" x2="231.604" y2="266.233"/>
		
			<line fill="none" stroke="#000000" stroke-width="4" stroke-miterlimit="10" x1="251.688" y1="216.243" x2="251.688" y2="249.569"/>
	</g>
	<g>
		<polygon fill="none" stroke="#000000" stroke-width="4" stroke-miterlimit="10" points="321.468,139.719 421.218,56.019 
			421.218,230.567 321.468,314.267 		"/>
		
			<line fill="none" stroke="#000000" stroke-width="4" stroke-miterlimit="10" x1="340.509" y1="124.189" x2="340.509" y2="157.516"/>
		
			<line fill="none" stroke="#000000" stroke-width="4" stroke-miterlimit="10" x1="360.593" y1="107.526" x2="360.593" y2="140.852"/>
		
			<line fill="none" stroke="#000000" stroke-width="4" stroke-miterlimit="10" x1="380.093" y1="90.864" x2="380.093" y2="124.189"/>
		<line fill="none" stroke="#000000" stroke-width="4" stroke-miterlimit="10" x1="400.175" y1="74.2" x2="400.175" y2="107.526"/>
		
			<line fill="none" stroke="#000000" stroke-width="4" stroke-miterlimit="10" x1="340.509" y1="265.911" x2="340.509" y2="299.235"/>
		
			<line fill="none" stroke="#000000" stroke-width="4" stroke-miterlimit="10" x1="360.593" y1="249.247" x2="360.593" y2="282.573"/>
		
			<line fill="none" stroke="#000000" stroke-width="4" stroke-miterlimit="10" x1="380.093" y1="232.585" x2="380.093" y2="265.911"/>
		
			<line fill="none" stroke="#000000" stroke-width="4" stroke-miterlimit="10" x1="400.175" y1="215.921" x2="400.175" y2="249.247"/>
	</g>
	<polyline fill="none" stroke="#000000" stroke-width="4" stroke-miterlimit="10" points="297.064,243.919 148.503,368.575 
		148.582,244.472 148.56,244.231 0,368.888 0.083,125.226 148.56,0.638 252.671,0.805 148.56,88.164 148.569,124.901 297.048,0.805 
		297.073,124.588 445.552,0 445.552,243.597 296.991,368.253 297.048,243.909 148.487,368.565 	"/>
</g>
</svg>
