<?xml version="1.0" encoding="utf-8"?>
<!-- Generator: Adobe Illustrator 15.0.2, SVG Export Plug-In . SVG Version: 6.00 Build 0)  -->
<!DOCTYPE svg PUBLIC "-//W3C//DTD SVG 1.1//EN" "http://www.w3.org/Graphics/SVG/1.1/DTD/svg11.dtd">
<svg version="1.1" id="Layer_1" xmlns="http://www.w3.org/2000/svg" xmlns:xlink="http://www.w3.org/1999/xlink" x="0px" y="0px"
	 width="297.064px" height="369.727px" viewBox="0 0 297.064 369.727" enable-background="new 0 0 297.064 369.727"
	 xml:space="preserve">
<g>
	<polygon fill="none" stroke="#000000" stroke-width="4" stroke-miterlimit="10" points="0.082,87.818 0.082,0.168 104.541,0.168 	
		"/>
	<g>
		<polygon fill="none" stroke="#000000" stroke-width="4" stroke-miterlimit="10" points="24.477,139.719 124.227,56.018 
			124.227,230.565 24.477,314.266 		"/>
		<line fill="none" stroke="#000000" stroke-width="4" stroke-miterlimit="10" x1="43.519" y1="124.189" x2="43.519" y2="157.516"/>
		<line fill="none" stroke="#000000" stroke-width="4" stroke-miterlimit="10" x1="63.602" y1="107.526" x2="63.602" y2="140.852"/>
		<line fill="none" stroke="#000000" stroke-width="4" stroke-miterlimit="10" x1="83.102" y1="90.863" x2="83.102" y2="124.189"/>
		
			<line fill="none" stroke="#000000" stroke-width="4" stroke-miterlimit="10" x1="103.185" y1="74.201" x2="103.185" y2="107.526"/>
		<line fill="none" stroke="#000000" stroke-width="4" stroke-miterlimit="10" x1="43.519" y1="265.909" x2="43.519" y2="299.234"/>
		<line fill="none" stroke="#000000" stroke-width="4" stroke-miterlimit="10" x1="63.602" y1="249.246" x2="63.602" y2="282.572"/>
		<line fill="none" stroke="#000000" stroke-width="4" stroke-miterlimit="10" x1="83.102" y1="232.584" x2="83.102" y2="265.909"/>
		
			<line fill="none" stroke="#000000" stroke-width="4" stroke-miterlimit="10" x1="103.185" y1="215.92" x2="103.185" y2="249.246"/>
	</g>
	<g>
		<polygon fill="none" stroke="#000000" stroke-width="4" stroke-miterlimit="10" points="172.98,139.404 272.73,55.704 
			272.73,230.252 172.98,313.951 		"/>
		
			<line fill="none" stroke="#000000" stroke-width="4" stroke-miterlimit="10" x1="192.021" y1="123.875" x2="192.021" y2="157.201"/>
		
			<line fill="none" stroke="#000000" stroke-width="4" stroke-miterlimit="10" x1="212.105" y1="107.213" x2="212.105" y2="140.537"/>
		<line fill="none" stroke="#000000" stroke-width="4" stroke-miterlimit="10" x1="231.605" y1="90.55" x2="231.605" y2="123.875"/>
		
			<line fill="none" stroke="#000000" stroke-width="4" stroke-miterlimit="10" x1="251.688" y1="73.887" x2="251.688" y2="107.213"/>
		
			<line fill="none" stroke="#000000" stroke-width="4" stroke-miterlimit="10" x1="192.021" y1="265.596" x2="192.021" y2="298.92"/>
		
			<line fill="none" stroke="#000000" stroke-width="4" stroke-miterlimit="10" x1="212.105" y1="248.932" x2="212.105" y2="282.258"/>
		
			<line fill="none" stroke="#000000" stroke-width="4" stroke-miterlimit="10" x1="231.605" y1="232.27" x2="231.605" y2="265.596"/>
		
			<line fill="none" stroke="#000000" stroke-width="4" stroke-miterlimit="10" x1="251.688" y1="215.605" x2="251.688" y2="248.932"/>
	</g>
	<polygon fill="none" stroke="#000000" stroke-width="4" stroke-miterlimit="10" points="297.064,243.281 148.504,367.938 
		148.582,243.834 148.561,243.595 0,368.251 0.082,124.588 148.561,0 252.671,0.168 148.561,87.527 148.586,124.273 297.064,0.473 	
		"/>
</g>
</svg>
