<?xml version="1.0" encoding="utf-8"?>
<!-- Generator: Adobe Illustrator 15.0.2, SVG Export Plug-In . SVG Version: 6.00 Build 0)  -->
<!DOCTYPE svg PUBLIC "-//W3C//DTD SVG 1.1//EN" "http://www.w3.org/Graphics/SVG/1.1/DTD/svg11.dtd">
<svg version="1.1" id="Layer_1" xmlns="http://www.w3.org/2000/svg" xmlns:xlink="http://www.w3.org/1999/xlink" x="0px" y="0px"
	 width="291.556px" height="369.727px" viewBox="0 0 291.556 369.727" enable-background="new 0 0 291.556 369.727"
	 xml:space="preserve">
<g>
	<polygon fill="none" stroke="#000000" stroke-width="4" stroke-miterlimit="10" points="123.843,129.388 24.093,45.687 
		24.093,321.034 123.843,237.335 	"/>
	
		<line fill="none" stroke="#000000" stroke-width="4" stroke-miterlimit="10" x1="104.801" y1="113.858" x2="104.801" y2="147.185"/>
	<line fill="none" stroke="#000000" stroke-width="4" stroke-miterlimit="10" x1="84.718" y1="97.195" x2="84.718" y2="130.521"/>
	<line fill="none" stroke="#000000" stroke-width="4" stroke-miterlimit="10" x1="65.218" y1="80.532" x2="65.218" y2="113.858"/>
	<line fill="none" stroke="#000000" stroke-width="4" stroke-miterlimit="10" x1="45.135" y1="63.87" x2="45.135" y2="97.195"/>
	
		<line fill="none" stroke="#000000" stroke-width="4" stroke-miterlimit="10" x1="104.801" y1="253.691" x2="104.801" y2="220.366"/>
	<line fill="none" stroke="#000000" stroke-width="4" stroke-miterlimit="10" x1="84.718" y1="270.354" x2="84.718" y2="237.028"/>
	<line fill="none" stroke="#000000" stroke-width="4" stroke-miterlimit="10" x1="65.218" y1="287.017" x2="65.218" y2="253.691"/>
	<line fill="none" stroke="#000000" stroke-width="4" stroke-miterlimit="10" x1="45.135" y1="303.681" x2="45.135" y2="270.354"/>
</g>
<g>
	<polygon fill="none" stroke="#000000" stroke-width="4" stroke-miterlimit="10" points="168.158,129.135 267.908,45.434 
		267.908,321.288 168.158,237.588 	"/>
	<line fill="none" stroke="#000000" stroke-width="4" stroke-miterlimit="10" x1="187.2" y1="113.605" x2="187.2" y2="146.932"/>
	<line fill="none" stroke="#000000" stroke-width="4" stroke-miterlimit="10" x1="207.283" y1="96.942" x2="207.283" y2="130.268"/>
	<line fill="none" stroke="#000000" stroke-width="4" stroke-miterlimit="10" x1="226.783" y1="80.279" x2="226.783" y2="113.605"/>
	<line fill="none" stroke="#000000" stroke-width="4" stroke-miterlimit="10" x1="246.866" y1="63.617" x2="246.866" y2="96.942"/>
	<line fill="none" stroke="#000000" stroke-width="4" stroke-miterlimit="10" x1="187.2" y1="253.944" x2="187.2" y2="220.619"/>
	
		<line fill="none" stroke="#000000" stroke-width="4" stroke-miterlimit="10" x1="207.283" y1="270.607" x2="207.283" y2="237.281"/>
	<line fill="none" stroke="#000000" stroke-width="4" stroke-miterlimit="10" x1="226.783" y1="287.27" x2="226.783" y2="253.944"/>
	
		<line fill="none" stroke="#000000" stroke-width="4" stroke-miterlimit="10" x1="246.866" y1="303.933" x2="246.866" y2="270.607"/>
</g>
<polygon fill="none" stroke="#000000" stroke-width="4" stroke-miterlimit="10" points="146.556,253.944 1.556,367.345 
	291.556,367.345 "/>
<line fill="none" stroke="#000000" stroke-width="4" stroke-miterlimit="10" x1="1.556" y1="367.345" x2="1.556" y2="2.346"/>
<line fill="none" stroke="#000000" stroke-width="4" stroke-miterlimit="10" x1="291.556" y1="367.345" x2="291.556" y2="2.346"/>
<polygon fill="none" stroke="#000000" stroke-width="4" stroke-miterlimit="10" points="145,114.401 290,1 0,1 "/>
<line fill="none" stroke="#000000" stroke-width="4" stroke-miterlimit="10" x1="145" y1="114.401" x2="145" y2="253.944"/>
</svg>
