<?xml version="1.0" encoding="utf-8"?>
<!-- Generator: Adobe Illustrator 15.0.2, SVG Export Plug-In . SVG Version: 6.00 Build 0)  -->
<!DOCTYPE svg PUBLIC "-//W3C//DTD SVG 1.1//EN" "http://www.w3.org/Graphics/SVG/1.1/DTD/svg11.dtd">
<svg version="1.1" id="Layer_1" xmlns="http://www.w3.org/2000/svg" xmlns:xlink="http://www.w3.org/1999/xlink" x="0px" y="0px"
	 width="232.877px" height="369.727px" viewBox="0 0 232.877 369.727" enable-background="new 0 0 232.877 369.727"
	 xml:space="preserve">
<polygon fill="none" stroke="#000000" stroke-width="4" stroke-miterlimit="10" points="0.082,88.556 0.082,0.905 104.541,0.905 "/>
<g>
	<polygon fill="none" stroke="#000000" stroke-width="4" stroke-miterlimit="10" points="24.477,140.456 124.227,56.755 
		124.227,231.303 24.477,315.003 	"/>
	<line fill="none" stroke="#000000" stroke-width="4" stroke-miterlimit="10" x1="43.519" y1="124.927" x2="43.519" y2="158.253"/>
	<line fill="none" stroke="#000000" stroke-width="4" stroke-miterlimit="10" x1="63.602" y1="108.264" x2="63.602" y2="141.589"/>
	<line fill="none" stroke="#000000" stroke-width="4" stroke-miterlimit="10" x1="83.102" y1="91.601" x2="83.102" y2="124.927"/>
	<line fill="none" stroke="#000000" stroke-width="4" stroke-miterlimit="10" x1="103.185" y1="74.938" x2="103.185" y2="108.264"/>
	<line fill="none" stroke="#000000" stroke-width="4" stroke-miterlimit="10" x1="43.519" y1="266.646" x2="43.519" y2="299.972"/>
	<line fill="none" stroke="#000000" stroke-width="4" stroke-miterlimit="10" x1="63.602" y1="249.983" x2="63.602" y2="283.31"/>
	<line fill="none" stroke="#000000" stroke-width="4" stroke-miterlimit="10" x1="83.102" y1="233.321" x2="83.102" y2="266.646"/>
	
		<line fill="none" stroke="#000000" stroke-width="4" stroke-miterlimit="10" x1="103.185" y1="216.657" x2="103.185" y2="249.983"/>
</g>
<g>
	
		<rect x="146.933" y="32.157" transform="matrix(0.7071 0.7071 -0.7071 0.7071 92.1077 -105.3873)" fill="none" stroke="#000000" stroke-width="4" stroke-miterlimit="10" width="52.668" height="52.667"/>
	<circle fill="none" stroke="#000000" stroke-width="4" stroke-miterlimit="10" cx="173.149" cy="58.137" r="15.9"/>
</g>
<path fill="none" stroke="#000000" stroke-width="4" stroke-miterlimit="10" d="M232.877,87.423V0.737h-84.316L0.082,125.325
	L0,368.988L172.939,224.31l0.107-77.057C206.09,147.253,232.877,120.466,232.877,87.423z"/>
</svg>
