<?xml version="1.0" encoding="utf-8"?>
<!-- Generator: Adobe Illustrator 15.0.2, SVG Export Plug-In . SVG Version: 6.00 Build 0)  -->
<!DOCTYPE svg PUBLIC "-//W3C//DTD SVG 1.1//EN" "http://www.w3.org/Graphics/SVG/1.1/DTD/svg11.dtd">
<svg version="1.1" id="Layer_1" xmlns="http://www.w3.org/2000/svg" xmlns:xlink="http://www.w3.org/1999/xlink" x="0px" y="0px"
	 width="291.556px" height="369.727px" viewBox="0 0 291.556 369.727" enable-background="new 0 0 291.556 369.727"
	 xml:space="preserve">
<g>
	<polygon fill="none" stroke="#000000" stroke-width="4" stroke-miterlimit="10" points="123.843,127.575 24.093,43.874 
		24.093,319.223 123.843,235.522 	"/>
	
		<line fill="none" stroke="#000000" stroke-width="4" stroke-miterlimit="10" x1="104.801" y1="112.046" x2="104.801" y2="145.372"/>
	<line fill="none" stroke="#000000" stroke-width="4" stroke-miterlimit="10" x1="84.718" y1="95.383" x2="84.718" y2="128.708"/>
	<line fill="none" stroke="#000000" stroke-width="4" stroke-miterlimit="10" x1="65.218" y1="78.72" x2="65.218" y2="112.046"/>
	<line fill="none" stroke="#000000" stroke-width="4" stroke-miterlimit="10" x1="45.135" y1="62.058" x2="45.135" y2="95.383"/>
	
		<line fill="none" stroke="#000000" stroke-width="4" stroke-miterlimit="10" x1="104.801" y1="251.879" x2="104.801" y2="218.554"/>
	<line fill="none" stroke="#000000" stroke-width="4" stroke-miterlimit="10" x1="84.718" y1="268.542" x2="84.718" y2="235.216"/>
	<line fill="none" stroke="#000000" stroke-width="4" stroke-miterlimit="10" x1="65.218" y1="285.204" x2="65.218" y2="251.879"/>
	<line fill="none" stroke="#000000" stroke-width="4" stroke-miterlimit="10" x1="45.135" y1="301.868" x2="45.135" y2="268.542"/>
</g>
<g>
	<path fill="none" stroke="#000000" stroke-width="4" stroke-miterlimit="10" d="M168.158,127.322l99.75-83.701v289.854
		c-41.125-0.253-99.758-48.271-99.75-97.7V127.322z"/>
	<line fill="none" stroke="#000000" stroke-width="4" stroke-miterlimit="10" x1="187.2" y1="111.793" x2="187.2" y2="145.119"/>
	<line fill="none" stroke="#000000" stroke-width="4" stroke-miterlimit="10" x1="207.283" y1="95.13" x2="207.283" y2="128.455"/>
	<line fill="none" stroke="#000000" stroke-width="4" stroke-miterlimit="10" x1="226.783" y1="78.467" x2="226.783" y2="111.793"/>
	<line fill="none" stroke="#000000" stroke-width="4" stroke-miterlimit="10" x1="246.866" y1="61.805" x2="246.866" y2="95.13"/>
	<line fill="none" stroke="#000000" stroke-width="4" stroke-miterlimit="10" x1="187.2" y1="284.132" x2="187.2" y2="218.807"/>
	
		<line fill="none" stroke="#000000" stroke-width="4" stroke-miterlimit="10" x1="207.283" y1="304.795" x2="207.283" y2="235.469"/>
	
		<line fill="none" stroke="#000000" stroke-width="4" stroke-miterlimit="10" x1="226.783" y1="321.457" x2="226.783" y2="252.132"/>
	
		<line fill="none" stroke="#000000" stroke-width="4" stroke-miterlimit="10" x1="246.866" y1="329.121" x2="246.866" y2="268.795"/>
</g>
<path fill="none" stroke="#000000" stroke-width="4" stroke-miterlimit="10" d="M291.556,365.533
	C212.455,365.604,145.778,296.9,145,252.132L1.556,365.533v-365L145,112.589L291.556,0.533V365.533z"/>
<line fill="none" stroke="#000000" stroke-width="4" stroke-miterlimit="10" x1="145" y1="112.589" x2="145" y2="252.132"/>
</svg>
