<?xml version="1.0" encoding="utf-8"?>
<!-- Generator: Adobe Illustrator 15.0.2, SVG Export Plug-In . SVG Version: 6.00 Build 0)  -->
<!DOCTYPE svg PUBLIC "-//W3C//DTD SVG 1.1//EN" "http://www.w3.org/Graphics/SVG/1.1/DTD/svg11.dtd">
<svg version="1.1" id="Layer_1" xmlns="http://www.w3.org/2000/svg" xmlns:xlink="http://www.w3.org/1999/xlink" x="0px" y="0px"
	 width="357.271px" height="369.727px" viewBox="0 0 357.271 369.727" enable-background="new 0 0 357.271 369.727"
	 xml:space="preserve">
<circle fill="none" stroke="#000000" stroke-width="4" stroke-miterlimit="10" cx="313.468" cy="59.658" r="11.025"/>
<g>
	
		<rect x="151.577" y="94.845" transform="matrix(0.7071 0.7071 -0.7071 0.7071 137.7953 -90.3098)" fill="none" stroke="#000000" stroke-width="4" stroke-miterlimit="10" width="52.668" height="52.667"/>
	<circle fill="none" stroke="#000000" stroke-width="4" stroke-miterlimit="10" cx="177.793" cy="120.825" r="15.9"/>
</g>
<circle fill="none" stroke="#000000" stroke-width="4" stroke-miterlimit="10" cx="38.079" cy="59.658" r="11.025"/>
<path fill="none" stroke="#000000" stroke-width="4" stroke-miterlimit="10" d="M86.508,227.492V77.938
	c-1.5,19.276-25.092,29.518-45.692,29.722C22.416,107.842-3.987,86.16-3.987,60.658S8.512,1.164,76.175,0.017
	s101.077,57.616,101.077,57.616s32.193-58.764,99.856-57.616s80.162,35.14,80.162,60.642s-26.403,47.184-44.803,47.001
	c-20.601-0.204-44.192-10.445-45.692-29.722v149.555H86.508z"/>
<polyline fill="none" stroke="#000000" stroke-width="4" stroke-miterlimit="10" points="266.779,149.919 347.15,149.919 
	347.15,300.552 "/>
<polyline fill="none" stroke="#000000" stroke-width="4" stroke-miterlimit="10" points="8.07,268.709 106.867,369.727 
	7.67,369.727 7.67,149.919 86.504,149.919 "/>
<circle fill="none" stroke="#000000" stroke-width="4" stroke-miterlimit="10" cx="313.125" cy="310.577" r="11.025"/>
<path fill="none" stroke="#000000" stroke-width="4" stroke-miterlimit="10" d="M19.867,254.803l114.828,114.829l123.347,0.095
	c-20.758,0-34.642-16.681-35.061-34.003c-0.608-25.146,19.614-38.684,57.169-38.172c0,0-3,39,31.254,39
	c34.645,0,35.746-24,35.746-36c0-20-16-45.537-44.5-45.537L19.867,254.803z"/>
<line fill="none" stroke="#000000" stroke-width="4" stroke-miterlimit="10" x1="41.079" y1="276.015" x2="84.867" y2="276.015"/>
<line fill="none" stroke="#000000" stroke-width="4" stroke-miterlimit="10" x1="66.079" y1="299.46" x2="109.867" y2="299.46"/>
<line fill="none" stroke="#000000" stroke-width="4" stroke-miterlimit="10" x1="91.079" y1="324.603" x2="134.867" y2="324.603"/>
<line fill="none" stroke="#000000" stroke-width="4" stroke-miterlimit="10" x1="116.079" y1="349.96" x2="159.867" y2="349.96"/>
<line fill="none" stroke="#000000" stroke-width="4" stroke-miterlimit="10" x1="163.867" y1="183.703" x2="163.867" y2="227.492"/>
<line fill="none" stroke="#000000" stroke-width="4" stroke-miterlimit="10" x1="189.867" y1="183.703" x2="189.867" y2="227.492"/>
<line fill="none" stroke="#000000" stroke-width="4" stroke-miterlimit="10" x1="143.367" y1="183.703" x2="143.367" y2="227.492"/>
<line fill="none" stroke="#000000" stroke-width="4" stroke-miterlimit="10" x1="208.867" y1="183.703" x2="208.867" y2="227.492"/>
</svg>
