<?xml version="1.0" encoding="utf-8"?>
<!-- Generator: Adobe Illustrator 15.0.2, SVG Export Plug-In . SVG Version: 6.00 Build 0)  -->
<!DOCTYPE svg PUBLIC "-//W3C//DTD SVG 1.1//EN" "http://www.w3.org/Graphics/SVG/1.1/DTD/svg11.dtd">
<svg version="1.1" id="Layer_1" xmlns="http://www.w3.org/2000/svg" xmlns:xlink="http://www.w3.org/1999/xlink" x="0px" y="0px"
	 width="293.111px" height="369.727px" viewBox="0 0 293.111 369.727" enable-background="new 0 0 293.111 369.727"
	 xml:space="preserve">
<g>
	<line fill="none" stroke="#000000" stroke-width="4" stroke-miterlimit="10" x1="122.806" y1="272.586" x2="0" y2="367"/>
	<line fill="none" stroke="#000000" stroke-width="4" stroke-miterlimit="10" x1="0" y1="367" x2="0" y2="100"/>
	<line fill="none" stroke="#000000" stroke-width="4" stroke-miterlimit="10" x1="41.579" y1="101.866" x2="41.579" y2="135.192"/>
	<line fill="none" stroke="#000000" stroke-width="4" stroke-miterlimit="10" x1="61.662" y1="85.203" x2="61.662" y2="118.528"/>
	<line fill="none" stroke="#000000" stroke-width="4" stroke-miterlimit="10" x1="81.162" y1="68.54" x2="81.162" y2="101.866"/>
	<polygon fill="none" stroke="#000000" stroke-width="4" stroke-miterlimit="10" points="22.537,117.396 22.537,320.942 
		101.245,254.898 101.245,51.351 	"/>
	<line fill="none" stroke="#000000" stroke-width="4" stroke-miterlimit="10" x1="41.579" y1="272.586" x2="41.579" y2="305.911"/>
	<line fill="none" stroke="#000000" stroke-width="4" stroke-miterlimit="10" x1="61.662" y1="255.923" x2="61.662" y2="289.249"/>
	<line fill="none" stroke="#000000" stroke-width="4" stroke-miterlimit="10" x1="81.162" y1="239.261" x2="81.162" y2="272.586"/>
	<polygon fill="none" stroke="#000000" stroke-width="4" stroke-miterlimit="10" points="0.519,100 0.519,2 122.806,2 	"/>
	<line fill="none" stroke="#000000" stroke-width="4" stroke-miterlimit="10" x1="122.806" y1="2" x2="122.806" y2="272.586"/>
	<line fill="none" stroke="#000000" stroke-width="4" stroke-miterlimit="10" x1="293.111" y1="272.586" x2="170.306" y2="367"/>
	<line fill="none" stroke="#000000" stroke-width="4" stroke-miterlimit="10" x1="170.306" y1="367" x2="170.306" y2="100"/>
	
		<line fill="none" stroke="#000000" stroke-width="4" stroke-miterlimit="10" x1="211.885" y1="101.866" x2="211.885" y2="135.192"/>
	<line fill="none" stroke="#000000" stroke-width="4" stroke-miterlimit="10" x1="231.968" y1="85.203" x2="231.968" y2="118.528"/>
	<line fill="none" stroke="#000000" stroke-width="4" stroke-miterlimit="10" x1="251.468" y1="68.54" x2="251.468" y2="101.866"/>
	<polygon fill="none" stroke="#000000" stroke-width="4" stroke-miterlimit="10" points="192.843,117.396 192.843,320.942 
		271.551,254.898 271.551,51.351 	"/>
	
		<line fill="none" stroke="#000000" stroke-width="4" stroke-miterlimit="10" x1="211.885" y1="272.586" x2="211.885" y2="305.911"/>
	
		<line fill="none" stroke="#000000" stroke-width="4" stroke-miterlimit="10" x1="231.968" y1="255.923" x2="231.968" y2="289.249"/>
	
		<line fill="none" stroke="#000000" stroke-width="4" stroke-miterlimit="10" x1="251.468" y1="239.261" x2="251.468" y2="272.586"/>
	<polygon fill="none" stroke="#000000" stroke-width="4" stroke-miterlimit="10" points="170.824,100 170.824,2 293.111,2 	"/>
	<line fill="none" stroke="#000000" stroke-width="4" stroke-miterlimit="10" x1="293.111" y1="2" x2="293.111" y2="272.586"/>
	<line fill="none" stroke="#000000" stroke-width="4" stroke-miterlimit="10" x1="0" y1="367" x2="170.306" y2="367"/>
	
		<line fill="none" stroke="#000000" stroke-width="4" stroke-miterlimit="10" x1="122.806" y1="272.586" x2="170.306" y2="272.586"/>
</g>
</svg>
