<?xml version="1.0" encoding="utf-8"?>
<!-- Generator: Adobe Illustrator 15.0.2, SVG Export Plug-In . SVG Version: 6.00 Build 0)  -->
<!DOCTYPE svg PUBLIC "-//W3C//DTD SVG 1.1//EN" "http://www.w3.org/Graphics/SVG/1.1/DTD/svg11.dtd">
<svg version="1.1" id="Layer_1" xmlns="http://www.w3.org/2000/svg" xmlns:xlink="http://www.w3.org/1999/xlink" x="0px" y="0px"
	 width="293.111px" height="369.727px" viewBox="0 0 293.111 369.727" enable-background="new 0 0 293.111 369.727"
	 xml:space="preserve">
<g>
	<polygon fill="none" stroke="#000000" stroke-width="4" stroke-miterlimit="10" points="123.287,129.042 23.537,45.341 
		23.537,320.689 123.287,236.989 	"/>
	
		<line fill="none" stroke="#000000" stroke-width="4" stroke-miterlimit="10" x1="104.245" y1="113.513" x2="104.245" y2="146.839"/>
	<line fill="none" stroke="#000000" stroke-width="4" stroke-miterlimit="10" x1="84.162" y1="96.85" x2="84.162" y2="130.175"/>
	<line fill="none" stroke="#000000" stroke-width="4" stroke-miterlimit="10" x1="64.662" y1="80.187" x2="64.662" y2="113.513"/>
	<line fill="none" stroke="#000000" stroke-width="4" stroke-miterlimit="10" x1="44.579" y1="63.524" x2="44.579" y2="96.85"/>
	
		<line fill="none" stroke="#000000" stroke-width="4" stroke-miterlimit="10" x1="104.245" y1="253.346" x2="104.245" y2="220.021"/>
	<line fill="none" stroke="#000000" stroke-width="4" stroke-miterlimit="10" x1="84.162" y1="270.009" x2="84.162" y2="236.683"/>
	<line fill="none" stroke="#000000" stroke-width="4" stroke-miterlimit="10" x1="64.662" y1="286.671" x2="64.662" y2="253.346"/>
	<line fill="none" stroke="#000000" stroke-width="4" stroke-miterlimit="10" x1="44.579" y1="303.335" x2="44.579" y2="270.009"/>
</g>
<g>
	<polygon fill="none" stroke="#000000" stroke-width="4" stroke-miterlimit="10" points="167.603,128.789 267.353,45.088 
		267.353,320.942 167.603,237.242 	"/>
	<line fill="none" stroke="#000000" stroke-width="4" stroke-miterlimit="10" x1="186.645" y1="113.26" x2="186.645" y2="146.586"/>
	<line fill="none" stroke="#000000" stroke-width="4" stroke-miterlimit="10" x1="206.728" y1="96.597" x2="206.728" y2="129.922"/>
	<line fill="none" stroke="#000000" stroke-width="4" stroke-miterlimit="10" x1="226.228" y1="79.934" x2="226.228" y2="113.26"/>
	<line fill="none" stroke="#000000" stroke-width="4" stroke-miterlimit="10" x1="246.311" y1="63.271" x2="246.311" y2="96.597"/>
	
		<line fill="none" stroke="#000000" stroke-width="4" stroke-miterlimit="10" x1="186.645" y1="253.599" x2="186.645" y2="220.273"/>
	
		<line fill="none" stroke="#000000" stroke-width="4" stroke-miterlimit="10" x1="206.728" y1="270.262" x2="206.728" y2="236.936"/>
	
		<line fill="none" stroke="#000000" stroke-width="4" stroke-miterlimit="10" x1="226.228" y1="286.924" x2="226.228" y2="253.599"/>
	
		<line fill="none" stroke="#000000" stroke-width="4" stroke-miterlimit="10" x1="246.311" y1="303.588" x2="246.311" y2="270.262"/>
</g>
<polygon fill="none" stroke="#000000" stroke-width="4" stroke-miterlimit="10" points="146,253.599 1,367 291,367 "/>
<line fill="none" stroke="#000000" stroke-width="4" stroke-miterlimit="10" x1="1" y1="367" x2="1" y2="2"/>
<line fill="none" stroke="#000000" stroke-width="4" stroke-miterlimit="10" x1="291" y1="367" x2="291" y2="2"/>
<polygon fill="none" stroke="#000000" stroke-width="4" stroke-miterlimit="10" points="123.287,100 123.287,2 1,2 "/>
<polygon fill="none" stroke="#000000" stroke-width="4" stroke-miterlimit="10" points="167.603,100 167.603,2 289.89,2 "/>
<line fill="none" stroke="#000000" stroke-width="4" stroke-miterlimit="10" x1="123.287" y1="100" x2="123.287" y2="129.042"/>
<line fill="none" stroke="#000000" stroke-width="4" stroke-miterlimit="10" x1="167.603" y1="128.789" x2="167.603" y2="100"/>
</svg>
