<?xml version="1.0" encoding="utf-8"?>
<!-- Generator: Adobe Illustrator 15.0.2, SVG Export Plug-In . SVG Version: 6.00 Build 0)  -->
<!DOCTYPE svg PUBLIC "-//W3C//DTD SVG 1.1//EN" "http://www.w3.org/Graphics/SVG/1.1/DTD/svg11.dtd">
<svg version="1.1" id="Layer_1" xmlns="http://www.w3.org/2000/svg" xmlns:xlink="http://www.w3.org/1999/xlink" x="0px" y="0px"
	 width="293.111px" height="369.727px" viewBox="0 0 293.111 369.727" enable-background="new 0 0 293.111 369.727"
	 xml:space="preserve">
<g>
	<polygon fill="none" stroke="#000000" stroke-width="4" stroke-miterlimit="10" points="169.002,131.77 268.752,48.068 
		268.752,323.416 169.002,239.717 	"/>
	<line fill="none" stroke="#000000" stroke-width="4" stroke-miterlimit="10" x1="188.044" y1="116.24" x2="188.044" y2="149.566"/>
	<line fill="none" stroke="#000000" stroke-width="4" stroke-miterlimit="10" x1="208.127" y1="99.576" x2="208.127" y2="132.902"/>
	<line fill="none" stroke="#000000" stroke-width="4" stroke-miterlimit="10" x1="227.627" y1="82.914" x2="227.627" y2="116.24"/>
	<line fill="none" stroke="#000000" stroke-width="4" stroke-miterlimit="10" x1="247.71" y1="66.252" x2="247.71" y2="99.576"/>
	
		<line fill="none" stroke="#000000" stroke-width="4" stroke-miterlimit="10" x1="188.044" y1="256.072" x2="188.044" y2="222.748"/>
	<line fill="none" stroke="#000000" stroke-width="4" stroke-miterlimit="10" x1="208.127" y1="272.736" x2="208.127" y2="239.41"/>
	
		<line fill="none" stroke="#000000" stroke-width="4" stroke-miterlimit="10" x1="227.627" y1="289.398" x2="227.627" y2="256.072"/>
	<line fill="none" stroke="#000000" stroke-width="4" stroke-miterlimit="10" x1="247.71" y1="306.062" x2="247.71" y2="272.736"/>
</g>
<polygon fill="none" stroke="#000000" stroke-width="4" stroke-miterlimit="10" points="146.289,256.326 291.289,369.727 
	291.289,4.727 146.289,119.413 "/>
<path fill="none" stroke="#000000" stroke-width="4" stroke-miterlimit="10" d="M291.289,369.727l-186.983-0.768
	c20.758,0,34.642-16.682,35.061-34.004c0.608-25.146-19.614-38.684-57.169-38.172c0,0,3,39-31.254,39c-34.645,0-35.746-24-35.746-36
	c0-20,16-44.537,44.5-44.537l86.592,1.08"/>
<circle fill="none" stroke="#000000" stroke-width="4" stroke-miterlimit="10" cx="49.223" cy="309.809" r="11.025"/>
<polygon fill="none" stroke="#000000" stroke-width="4" stroke-miterlimit="10" points="26.631,100.604 123.381,47.902 
	123.381,206.251 26.631,129.552 "/>
<line fill="none" stroke="#000000" stroke-width="4" stroke-miterlimit="10" x1="49.223" y1="147.118" x2="49.223" y2="123.794"/>
<line fill="none" stroke="#000000" stroke-width="4" stroke-miterlimit="10" x1="71.898" y1="166.228" x2="71.898" y2="142.901"/>
<line fill="none" stroke="#000000" stroke-width="4" stroke-miterlimit="10" x1="94.089" y1="182.893" x2="94.089" y2="159.566"/>
<path fill="none" stroke="#000000" stroke-width="4" stroke-miterlimit="10" d="M2.723,146.23
	c0,78.289-10.301,110.096,38.788,112.801"/>
<polyline fill="none" stroke="#000000" stroke-width="4" stroke-miterlimit="10" points="146.289,256.326 2.723,146.23 
	2.723,84.396 146.556,4.727 146.289,119.413 "/>
<line fill="none" stroke="#000000" stroke-width="4" stroke-miterlimit="10" x1="49.466" y1="87.895" x2="49.466" y2="110.219"/>
<line fill="none" stroke="#000000" stroke-width="4" stroke-miterlimit="10" x1="72.142" y1="76.285" x2="72.142" y2="98.611"/>
<line fill="none" stroke="#000000" stroke-width="4" stroke-miterlimit="10" x1="98.731" y1="62.12" x2="98.731" y2="84.446"/>
</svg>
