<?xml version="1.0" encoding="utf-8"?>
<!-- Generator: Adobe Illustrator 15.0.2, SVG Export Plug-In . SVG Version: 6.00 Build 0)  -->
<!DOCTYPE svg PUBLIC "-//W3C//DTD SVG 1.1//EN" "http://www.w3.org/Graphics/SVG/1.1/DTD/svg11.dtd">
<svg version="1.1" id="Layer_1" xmlns="http://www.w3.org/2000/svg" xmlns:xlink="http://www.w3.org/1999/xlink" x="0px" y="0px"
	 width="434.718px" height="369.727px" viewBox="0 0 434.718 369.727" enable-background="new 0 0 434.718 369.727"
	 xml:space="preserve">
<g>
	<g>
		<polygon fill="none" stroke="#000000" stroke-width="4" stroke-miterlimit="10" points="122.287,128.46 22.537,44.759 
			22.537,320.106 122.287,236.407 		"/>
		
			<line fill="none" stroke="#000000" stroke-width="4" stroke-miterlimit="10" x1="103.245" y1="112.931" x2="103.245" y2="146.257"/>
		<line fill="none" stroke="#000000" stroke-width="4" stroke-miterlimit="10" x1="83.162" y1="96.267" x2="83.162" y2="129.593"/>
		<line fill="none" stroke="#000000" stroke-width="4" stroke-miterlimit="10" x1="63.662" y1="79.604" x2="63.662" y2="112.931"/>
		<line fill="none" stroke="#000000" stroke-width="4" stroke-miterlimit="10" x1="43.579" y1="62.942" x2="43.579" y2="96.267"/>
		
			<line fill="none" stroke="#000000" stroke-width="4" stroke-miterlimit="10" x1="103.245" y1="252.763" x2="103.245" y2="219.438"/>
		<line fill="none" stroke="#000000" stroke-width="4" stroke-miterlimit="10" x1="83.162" y1="269.427" x2="83.162" y2="236.101"/>
		<line fill="none" stroke="#000000" stroke-width="4" stroke-miterlimit="10" x1="63.662" y1="286.089" x2="63.662" y2="252.763"/>
		<line fill="none" stroke="#000000" stroke-width="4" stroke-miterlimit="10" x1="43.579" y1="302.753" x2="43.579" y2="269.427"/>
	</g>
	<polygon fill="none" stroke="#000000" stroke-width="4" stroke-miterlimit="10" points="145,253.017 0,366.417 0,1.417 
		145,116.104 	"/>
</g>
<path fill="none" stroke="#000000" stroke-width="4" stroke-miterlimit="10" d="M146.102,366.033h160.446
	c-20.758,0-34.642-16.681-35.061-34.003c-0.608-25.146,19.614-38.684,57.169-38.172c0,0-3,39,31.254,39
	c34.645,0,35.746-24,35.746-36c0-20-16-45.537-44.5-45.537l-59.938-0.184"/>
<circle fill="none" stroke="#000000" stroke-width="4" stroke-miterlimit="10" cx="361.631" cy="306.884" r="11.025"/>
<line fill="none" stroke="#000000" stroke-width="4" stroke-miterlimit="10" x1="145" y1="253.017" x2="145" y2="366.033"/>
<line fill="none" stroke="#000000" stroke-width="4" stroke-miterlimit="10" x1="144.906" y1="366.417" x2="434.718" y2="138.075"/>
<path fill="none" stroke="#000000" stroke-width="4" stroke-miterlimit="10" d="M144.906,115.588L270.879,15.583
	c0,0,60.319-47.891,79.727,0c16.206,39.992-6.077,57.633-6.077,57.633l-73.649,58.028v109.101"/>
<polyline fill="none" stroke="#000000" stroke-width="4" stroke-miterlimit="10" points="165.255,99.556 165.255,323.106 
	270.879,240.345 "/>
<polygon fill="none" stroke="#000000" stroke-width="4" stroke-miterlimit="10" points="311.986,205.764 411.275,129.984 
	411.175,48.388 311.986,124.753 "/>
<line fill="none" stroke="#000000" stroke-width="4" stroke-miterlimit="10" x1="329.044" y1="111.304" x2="329.044" y2="139.873"/>
<line fill="none" stroke="#000000" stroke-width="4" stroke-miterlimit="10" x1="350.605" y1="95.018" x2="350.605" y2="123.588"/>
<line fill="none" stroke="#000000" stroke-width="4" stroke-miterlimit="10" x1="392.146" y1="64.066" x2="392.146" y2="92.637"/>
<path fill="none" stroke="#000000" stroke-width="4" stroke-miterlimit="10" d="M356.512,250.876h39.145
	c49.089-2.705,38.788-34.512,38.788-112.801l0.273-136.658L336.42,79.604"/>
<line fill="none" stroke="#000000" stroke-width="4" stroke-miterlimit="10" x1="372.656" y1="78.351" x2="372.656" y2="106.921"/>
<line fill="none" stroke="#000000" stroke-width="4" stroke-miterlimit="10" x1="329.044" y1="164.559" x2="329.044" y2="193.128"/>
<line fill="none" stroke="#000000" stroke-width="4" stroke-miterlimit="10" x1="350.605" y1="148.272" x2="350.605" y2="176.843"/>
<line fill="none" stroke="#000000" stroke-width="4" stroke-miterlimit="10" x1="392.146" y1="117.321" x2="392.146" y2="145.892"/>
<line fill="none" stroke="#000000" stroke-width="4" stroke-miterlimit="10" x1="372.656" y1="131.605" x2="372.656" y2="160.176"/>
<line fill="none" stroke="#000000" stroke-width="4" stroke-miterlimit="10" x1="187.2" y1="80.543" x2="187.2" y2="109.112"/>
<line fill="none" stroke="#000000" stroke-width="4" stroke-miterlimit="10" x1="208.762" y1="64.257" x2="208.762" y2="92.827"/>
<line fill="none" stroke="#000000" stroke-width="4" stroke-miterlimit="10" x1="230.812" y1="47.59" x2="230.812" y2="76.16"/>
</svg>
