<?xml version="1.0" encoding="utf-8"?>
<!-- Generator: Adobe Illustrator 15.0.2, SVG Export Plug-In . SVG Version: 6.00 Build 0)  -->
<!DOCTYPE svg PUBLIC "-//W3C//DTD SVG 1.1//EN" "http://www.w3.org/Graphics/SVG/1.1/DTD/svg11.dtd">
<svg version="1.1" id="Layer_1" xmlns="http://www.w3.org/2000/svg" xmlns:xlink="http://www.w3.org/1999/xlink" x="0px" y="0px"
	 width="291px" height="369.727px" viewBox="0 0 291 369.727" enable-background="new 0 0 291 369.727" xml:space="preserve">
<line fill="none" stroke="#000000" stroke-width="4" stroke-miterlimit="10" x1="104.245" y1="113.625" x2="104.245" y2="146.951"/>
<line fill="none" stroke="#000000" stroke-width="4" stroke-miterlimit="10" x1="84.162" y1="96.962" x2="84.162" y2="130.287"/>
<line fill="none" stroke="#000000" stroke-width="4" stroke-miterlimit="10" x1="64.662" y1="80.299" x2="64.662" y2="113.625"/>
<line fill="none" stroke="#000000" stroke-width="4" stroke-miterlimit="10" x1="44.579" y1="63.637" x2="44.579" y2="96.962"/>
<line fill="none" stroke="#000000" stroke-width="4" stroke-miterlimit="10" x1="104.245" y1="253.458" x2="104.245" y2="220.133"/>
<line fill="none" stroke="#000000" stroke-width="4" stroke-miterlimit="10" x1="84.162" y1="270.121" x2="84.162" y2="236.795"/>
<line fill="none" stroke="#000000" stroke-width="4" stroke-miterlimit="10" x1="64.662" y1="286.783" x2="64.662" y2="253.458"/>
<line fill="none" stroke="#000000" stroke-width="4" stroke-miterlimit="10" x1="44.579" y1="303.447" x2="44.579" y2="270.121"/>
<polyline fill="none" stroke="#000000" stroke-width="4" stroke-miterlimit="10" points="167.603,237.354 267.353,321.055 
	267.353,45.2 145.445,146.951 23.537,45.453 23.537,320.802 267.353,117.863 "/>
<line fill="none" stroke="#000000" stroke-width="4" stroke-miterlimit="10" x1="186.645" y1="113.372" x2="186.645" y2="146.698"/>
<line fill="none" stroke="#000000" stroke-width="4" stroke-miterlimit="10" x1="206.728" y1="96.709" x2="206.728" y2="130.034"/>
<line fill="none" stroke="#000000" stroke-width="4" stroke-miterlimit="10" x1="226.228" y1="80.046" x2="226.228" y2="113.372"/>
<line fill="none" stroke="#000000" stroke-width="4" stroke-miterlimit="10" x1="190.5" y1="257.211" x2="190.5" y2="223.886"/>
<line fill="none" stroke="#000000" stroke-width="4" stroke-miterlimit="10" x1="206.728" y1="270.374" x2="206.728" y2="237.048"/>
<polyline fill="none" stroke="#000000" stroke-width="4" stroke-miterlimit="10" points="291,367.112 146,253.711 1,367.112 "/>
<line fill="none" stroke="#000000" stroke-width="4" stroke-miterlimit="10" x1="1" y1="367.112" x2="1" y2="2.112"/>
<line fill="none" stroke="#000000" stroke-width="4" stroke-miterlimit="10" x1="291" y1="367.112" x2="291" y2="2.112"/>
<polyline fill="none" stroke="#000000" stroke-width="4" stroke-miterlimit="10" points="289.89,2.112 146,117.863 1,2.112 "/>
<line fill="none" stroke="#000000" stroke-width="4" stroke-miterlimit="10" x1="146" y1="253.711" x2="267.353" y2="159.328"/>
</svg>
