<?xml version="1.0" encoding="utf-8"?>
<!-- Generator: Adobe Illustrator 15.0.2, SVG Export Plug-In . SVG Version: 6.00 Build 0)  -->
<!DOCTYPE svg PUBLIC "-//W3C//DTD SVG 1.1//EN" "http://www.w3.org/Graphics/SVG/1.1/DTD/svg11.dtd">
<svg version="1.1" id="Layer_1" xmlns="http://www.w3.org/2000/svg" xmlns:xlink="http://www.w3.org/1999/xlink" x="0px" y="0px"
	 width="258.78px" height="369.727px" viewBox="0 0 258.78 369.727" enable-background="new 0 0 258.78 369.727"
	 xml:space="preserve">
<polygon fill="none" stroke="#000000" stroke-width="4" stroke-miterlimit="10" points="1.082,89.294 1.082,1.644 105.541,1.644 "/>
<g>
	<polygon fill="none" stroke="#000000" stroke-width="4" stroke-miterlimit="10" points="25.477,141.194 125.227,57.493 
		125.227,232.041 25.477,315.741 	"/>
	<line fill="none" stroke="#000000" stroke-width="4" stroke-miterlimit="10" x1="44.519" y1="125.665" x2="44.519" y2="158.991"/>
	<line fill="none" stroke="#000000" stroke-width="4" stroke-miterlimit="10" x1="64.602" y1="109.002" x2="64.602" y2="142.327"/>
	<line fill="none" stroke="#000000" stroke-width="4" stroke-miterlimit="10" x1="84.102" y1="92.339" x2="84.102" y2="125.665"/>
	<line fill="none" stroke="#000000" stroke-width="4" stroke-miterlimit="10" x1="104.185" y1="75.677" x2="104.185" y2="109.002"/>
	<line fill="none" stroke="#000000" stroke-width="4" stroke-miterlimit="10" x1="44.519" y1="267.385" x2="44.519" y2="300.71"/>
	<line fill="none" stroke="#000000" stroke-width="4" stroke-miterlimit="10" x1="64.602" y1="250.722" x2="64.602" y2="284.048"/>
	<line fill="none" stroke="#000000" stroke-width="4" stroke-miterlimit="10" x1="84.102" y1="234.06" x2="84.102" y2="267.385"/>
	
		<line fill="none" stroke="#000000" stroke-width="4" stroke-miterlimit="10" x1="104.185" y1="217.396" x2="104.185" y2="250.722"/>
</g>
<g>
	
		<rect x="164.508" y="146.994" transform="matrix(0.7071 0.7071 -0.7071 0.7071 178.4571 -84.1792)" fill="none" stroke="#000000" stroke-width="4" stroke-miterlimit="10" width="52.668" height="52.667"/>
	<circle fill="none" stroke="#000000" stroke-width="4" stroke-miterlimit="10" cx="190.724" cy="172.974" r="15.9"/>
</g>
<circle fill="none" stroke="#000000" stroke-width="4" stroke-miterlimit="10" cx="224.755" cy="322.947" r="11.025"/>
<path fill="none" stroke="#000000" stroke-width="4" stroke-miterlimit="10" d="M153.6,267.385h60.681
	c28.5,0,44.5,25.537,44.5,45.537c0,12-1.102,36-35.746,36c-34.254,0-31.254-39-31.254-39c-46,1-66.554,59.805-66.554,59.805H1
	l0.082-243.663L149.561,1.476c0,0,4.039,35.799,41.057,34.03c0,0-3-39,31.254-39c34.645,0,35.746,24,35.746,36
	c0,20-16,45.537-44.5,45.537L153.6,78.255v28.667h101.079v134h-79.855v26.463"/>
<circle fill="none" stroke="#000000" stroke-width="4" stroke-miterlimit="10" cx="223.592" cy="22.48" r="11.025"/>
</svg>
